<svg width="158" height="131" viewBox="0 0 158 131" fill="none" xmlns="http://www.w3.org/2000/svg">
<path d="M78.7238 2.6001L78.7585 7.9235M126.669 65.1883V86.0256M101.383 106.786H141.239M120.401 127.624H141.239M25.5245 65.1501H37.5021M37.0469 23.5138L37.1164 23.4374M16.2085 65.1883L16.278 65.1119M99.5622 127.7L99.6317 127.624M78.7238 127.7L78.7932 127.624M141.239 65.1883L141.308 65.1119M141.239 86.0256L141.308 85.9492M120.401 23.5138L120.47 23.4374M57.8853 10.5716V6.76755C57.8853 5.66227 57.4463 4.60227 56.6647 3.82072C55.8831 3.03917 54.823 2.6001 53.7177 2.6001H20.3762C19.2708 2.6001 18.2108 3.03917 17.4292 3.82072C16.6476 4.60227 16.2085 5.66227 16.2085 6.76755V40.1072C16.2085 41.2125 16.6476 42.2725 17.4292 43.054C18.2108 43.8356 19.2708 44.2746 20.3762 44.2746H32.1787M119.551 44.351L137.071 44.2746C138.177 44.2746 139.237 43.8356 140.018 43.054C140.8 42.2725 141.239 41.2125 141.239 40.1072V6.76755C141.239 5.66227 140.8 4.60227 140.018 3.82072C139.237 3.03917 138.177 2.6001 137.071 2.6001H103.73C102.625 2.6001 101.564 3.03917 100.783 3.82072C100.001 4.60227 99.5622 5.66227 99.5622 6.76755V10.2781M37.0469 106.863L37.1164 106.786M57.8853 119.715V123.456C57.8853 124.562 57.4463 125.622 56.6647 126.403C55.8831 127.185 54.823 127.624 53.7177 127.624H20.3762C19.2708 127.624 18.2108 127.185 17.4292 126.403C16.6476 125.622 16.2085 124.562 16.2085 123.456V90.1166C16.2085 89.0113 16.6476 87.9513 17.4292 87.1698C18.2108 86.3882 19.2708 85.9492 20.3762 85.9492H47.5287" stroke="#151515" stroke-width="5" stroke-linecap="round" stroke-linejoin="round"/>
<path d="M60.1343 17.1173C54.1246 20.1222 46.913 24.329 43.3072 32.7425C39.7014 41.156 36.6966 54.9783 46.913 68.8005M64.942 15.3144C79.9662 12.3096 85.9759 12.3096 98.5962 17.1173C111.217 21.9251 112.418 38.7522 114.221 50.7715C114.678 53.8136 117.571 56.8534 119.839 58.8162C121.28 60.0629 121.612 62.2666 120.422 63.7543V63.7543C120.295 63.913 120.153 64.0594 119.999 64.1916L116.024 67.5986" stroke="#3B608D" stroke-width="3" stroke-linecap="round"/>
<path d="M56.5283 29.1361C69.7496 16.5157 96.1922 17.7177 103.404 36.9486" stroke="#3B608D" stroke-width="3" stroke-linecap="round"/>
<path d="M51.1196 47.1653C58.9322 30.3383 74.5574 25.5305 87.7786 32.1412M56.5283 68.8002C52.9225 50.1702 63.139 38.7518 76.9612 37.5499" stroke="#3B608D" stroke-width="3" stroke-linecap="round"/>
<path d="M65.5425 58.5832C67.9463 46.5639 76.3599 42.9581 86.5763 45.3619" stroke="#3B608D" stroke-width="3" stroke-linecap="round"/>
<path d="M74.5568 68.8008C69.1481 50.1708 89.581 46.565 85.3743 65.7959" stroke="#3B608D" stroke-width="3" stroke-linecap="round"/>
<path d="M91.9851 50.1697C97.3938 62.79 93.788 71.2035 82.3696 76.6122" stroke="#3B608D" stroke-width="3" stroke-linecap="round"/>
<path d="M66.1436 64.5931C66.2636 74.4979 68.912 78.6397 78.7639 83.2231" stroke="#3B608D" stroke-width="3" stroke-linecap="round"/>
<path d="M87.1772 86.8289C105.206 74.8095 107.61 52.5737 94.3889 37.5496" stroke="#3B608D" stroke-width="3" stroke-linecap="round"/>
<path d="M48.7158 74.8094C58.8791 89.769 58.7517 93.9758 51.0665 111.404M62.5381 80.2182C68.5477 90.4346 70.3506 101.853 60.7352 113.271M72.7545 88.0307C77.4928 92.2331 80.8879 93.2031 88.3797 92.2375" stroke="#3B608D" stroke-width="3" stroke-linecap="round"/>
<path d="M79.365 97.0453C74.6669 100.994 72.6479 104.766 69.7495 113.271" stroke="#3B608D" stroke-width="3" stroke-linecap="round"/>
<path d="M86.5764 100.651C82.5323 104.767 80.9798 107.685 79.3647 113.872" stroke="#3B608D" stroke-width="3" stroke-linecap="round"/>
<path d="M109.413 68.1989C108.211 82.0211 103.659 86.2951 93.7881 93.4395" stroke="#3B608D" stroke-width="3" stroke-linecap="round"/>
<path d="M116.625 72.4056C116.977 72.7571 117.38 73.2628 117.774 73.8024C118.956 75.421 118.724 77.632 117.392 79.1301L117.303 79.2304C115.87 80.8424 115.807 83.2526 117.155 84.9368V84.9368C118.564 86.6982 118.423 89.2375 116.828 90.8325L116.148 91.5125C115.289 92.3722 114.162 92.921 112.958 93.0847C98.5067 95.0482 92.5332 97.4432 92.5332 117.053" stroke="#3B608D" stroke-width="3" stroke-linecap="round"/>
<rect x="2.6001" y="47" width="154.379" height="21.2936" fill="url(#paint0_linear_1050_4)"/>
<rect x="0.200195" y="47" width="156.9" height="2.7" rx="1.35" fill="#151515"/>
<defs>
<linearGradient id="paint0_linear_1050_4" x1="79.7895" y1="55.5174" x2="79.7895" y2="65.6319" gradientUnits="userSpaceOnUse">
<stop stop-color="white"/>
<stop offset="1" stop-color="white" stop-opacity="0"/>
</linearGradient>
</defs>
</svg>
