<svg width="42" height="52" viewBox="0 0 42 52" fill="none" xmlns="http://www.w3.org/2000/svg">
<path d="M11.8851 2.66566C9.29883 3.95877 6.19535 5.76913 4.64362 9.38984C3.09188 13.0106 1.79877 18.9589 6.19535 24.9072M13.954 1.88979C20.4196 0.596679 23.0058 0.596673 28.4369 2.66566C33.868 4.73464 34.3852 11.9761 35.1611 17.1485C35.3575 18.4577 36.6026 19.7658 37.5786 20.6105C38.1985 21.147 38.3416 22.0953 37.8294 22.7356V22.7356C37.7748 22.8039 37.7139 22.8669 37.6475 22.9238L35.937 24.39" stroke="#306292" stroke-linecap="round"/>
<path d="M10.3333 7.83787C16.023 2.40679 27.4024 2.92404 30.5058 11.2" stroke="#306292" stroke-linecap="round"/>
<path d="M8.00566 15.5966C11.3678 8.3552 18.0919 6.28622 23.7816 9.13107M10.3333 24.907C8.78153 16.8897 13.1781 11.9759 19.1264 11.4587" stroke="#306292" stroke-linecap="round"/>
<path d="M14.2126 20.5103C15.2471 15.3379 18.8678 13.7861 23.2644 14.8206" stroke="#306292" stroke-linecap="round"/>
<path d="M18.0919 24.9072C15.7643 16.8899 24.5575 15.3382 22.7471 23.6141" stroke="#306292" stroke-linecap="round"/>
<path d="M25.592 16.8896C27.9196 22.3207 26.3679 25.9414 21.454 28.269" stroke="#306292" stroke-linecap="round"/>
<path d="M14.4712 23.0966C14.5229 27.359 15.6626 29.1414 19.9023 31.1139" stroke="#306292" stroke-linecap="round"/>
<path d="M23.523 32.6656C31.2817 27.4932 32.3162 17.9241 26.6265 11.4586" stroke="#306292" stroke-linecap="round"/>
<path d="M6.97118 27.4932C11.3449 33.9309 11.2901 35.7413 7.98278 43.2413M12.9195 29.8208C15.5057 34.2174 16.2816 39.1312 12.1436 44.045M17.3161 33.1829C19.3552 34.9913 20.8162 35.4088 24.0403 34.9932" stroke="#306292" stroke-linecap="round"/>
<path d="M20.1609 37.0622C18.1391 38.7617 17.2703 40.3847 16.023 44.045" stroke="#306292" stroke-linecap="round"/>
<path d="M23.2644 38.614C21.5241 40.3854 20.856 41.6409 20.1609 44.3037" stroke="#306292" stroke-linecap="round"/>
<path d="M33.0921 24.6483C32.5748 30.5966 30.6159 32.4359 26.3679 35.5105" stroke="#306292" stroke-linecap="round"/>
<path d="M36.1956 26.4586C36.3468 26.6099 36.5202 26.8275 36.6898 27.0598C37.1986 27.7563 37.0987 28.7078 36.5256 29.3525L36.4872 29.3956C35.8706 30.0894 35.8436 31.1266 36.4235 31.8514V31.8514C37.0299 32.6094 36.9694 33.7021 36.283 34.3885L35.9904 34.6812C35.6204 35.0511 35.1354 35.2804 34.622 35.3811C28.3203 36.6173 24.7933 42.5567 24.7933 51" stroke="#306292" stroke-linecap="round"/>
<rect x="1" y="18.3618" width="39.7244" height="3.72417" fill="url(#paint0_linear_371_676)"/>
<path d="M1 18.155L41.3451 18.155" stroke="#FC6736" stroke-linecap="round"/>
<defs>
<linearGradient id="paint0_linear_371_676" x1="20.8622" y1="18.3618" x2="20.8622" y2="22.7067" gradientUnits="userSpaceOnUse">
<stop stop-color="#717171" stop-opacity="0.6"/>
<stop offset="1" stop-color="#F2F3F7" stop-opacity="0"/>
</linearGradient>
</defs>
</svg>
