<svg width="150" height="150" viewBox="0 0 150 150" fill="none" xmlns="http://www.w3.org/2000/svg">
<circle opacity="0.2" cx="75" cy="75" r="75" fill="url(#paint0_linear_20_144)"/>
<circle opacity="0.4" cx="75" cy="75" r="63" fill="url(#paint1_linear_20_144)"/>
<circle cx="75" cy="75" r="52" fill="url(#paint2_linear_20_144)"/>
<path d="M60.6667 49H54.8333C53.2862 49 51.8025 49.6146 50.7085 50.7085C49.6146 51.8025 49 53.2862 49 54.8333V60.6667M89.8333 49H95.6667C97.2138 49 98.6975 49.6146 99.7915 50.7085C100.885 51.8025 101.5 53.2862 101.5 54.8333V60.6667M86.9167 63.5833V69.4167M63.5833 63.5833V69.4167M66.5 86.9167C66.5 86.9167 69.4167 89.8333 75.25 89.8333C81.0833 89.8333 84 86.9167 84 86.9167M75.25 63.5833V78.1667H72.3333M60.6667 101.5H54.8333C53.2862 101.5 51.8025 100.885 50.7085 99.7915C49.6146 98.6975 49 97.2138 49 95.6667V89.8333M89.8333 101.5H95.6667C97.2138 101.5 98.6975 100.885 99.7915 99.7915C100.885 98.6975 101.5 97.2138 101.5 95.6667V89.8333" stroke="#F2F3F7" stroke-width="2.5" stroke-linecap="round" stroke-linejoin="round"/>
<defs>
<linearGradient id="paint0_linear_20_144" x1="75" y1="0" x2="75" y2="150" gradientUnits="userSpaceOnUse">
<stop stop-color="#FC6736"/>
<stop offset="1" stop-color="#E9956F"/>
</linearGradient>
<linearGradient id="paint1_linear_20_144" x1="75" y1="12" x2="75" y2="138" gradientUnits="userSpaceOnUse">
<stop stop-color="#FC6736"/>
<stop offset="1" stop-color="#E9956F"/>
</linearGradient>
<linearGradient id="paint2_linear_20_144" x1="75" y1="23" x2="75" y2="127" gradientUnits="userSpaceOnUse">
<stop stop-color="#FC6736"/>
<stop offset="1" stop-color="#E9956F"/>
</linearGradient>
</defs>
</svg>
